<?xml version="1.0" encoding="UTF-8" standalone="no"?>
<!-- Created with Inkscape (http://www.inkscape.org/) -->

<svg
   width="92.070679mm"
   height="67.258873mm"
   viewBox="0 0 92.070679 67.258873"
   version="1.1"
   id="svg1"
   xml:space="preserve"
   xmlns:inkscape="http://www.inkscape.org/namespaces/inkscape"
   xmlns:sodipodi="http://sodipodi.sourceforge.net/DTD/sodipodi-0.dtd"
   xmlns="http://www.w3.org/2000/svg"
   xmlns:svg="http://www.w3.org/2000/svg"><sodipodi:namedview
     id="namedview1"
     pagecolor="#505050"
     bordercolor="#ffffff"
     borderopacity="1"
     inkscape:showpageshadow="0"
     inkscape:pageopacity="0"
     inkscape:pagecheckerboard="1"
     inkscape:deskcolor="#505050"
     inkscape:document-units="mm" /><defs
     id="defs1" /><g
     inkscape:groupmode="layer"
     id="layer2"
     inkscape:label="DIBUJO"
     transform="translate(-72.234522,-80.65064)"><path
       style="display:inline;fill:#ffffff;fill-opacity:1;stroke:#ffffff;stroke-width:0.264583;stroke-opacity:1"
       d="m 139.24376,147.76968 c 6.34615,-0.23625 11.97796,-6.76605 13.63284,-13.3082 3.6108,-14.27433 -10.71152,-18.58279 -10.71152,-18.58279 0,0 12.26377,2.82851 18.46112,-4.86885 2.56266,-3.18295 7.563,-28.179007 -2.39386,-29.943448 -20.95659,-3.713679 -39.96257,30.349188 -39.96257,30.349188 0,0 -19.005876,-34.062867 -39.962396,-30.349188 -9.956851,1.764441 -4.956519,26.760498 -2.393851,29.943448 6.197346,7.69736 18.461066,4.86885 18.461066,4.86885 0,0 -14.322271,4.30846 -10.711475,18.58279 1.654886,6.54215 7.286671,13.07195 13.632787,13.3082 9.240609,0.34401 17.852459,-11.19836 20.973869,-16.79754 3.12143,5.59918 11.73332,17.14155 20.97399,16.79754 z"
       id="path3"
       sodipodi:nodetypes="sscsscsscsscs"
       inkscape:export-filename="monarch.svg"
       inkscape:export-xdpi="96"
       inkscape:export-ydpi="96" /></g></svg>
